# xmcd
#
# Track frame offsets: 
#        150
#        19016
#        33411
#        50357
#        65966
#        86366
#        97948
#        112275
#        123364
#        133864
#        151510
#        165050
#        178377
#        190985
#        211401
#        223415
#
# Disc length: 3279 seconds
#
# Revision: 7
# Processed by: cddbd v1.5.1PL0 Copyright (c) Steve Scherf et al.
# Submitted via: ExactAudioCopy v0.95b2
#
DISCID=e20ccd10
DTITLE=Various Artist - House of Blues - Essential Texas Blues [CD2)
DYEAR=1997
DGENRE=Blues
TTITLE0=Johnny Winter - It's My Life, Baby
TTITLE1=Angela Strehli - Go On
TTITLE2=Tutu Jones - It's Been a Mistake
TTITLE3=W. C. Clarke - Why Do Things Happen To Me?
TTITLE4=Willie Mae Thornton - Ball n' Chain
TTITLE5=Mance Lipscomb - Ella Speed
TTITLE6=Lowell Fulson - Reconsider Baby
TTITLE7=Pee Wee Crayton - Texas Hop
TTITLE8=Fabulous Thunderbirds - How Do You Spell Love?
TTITLE9=Omar and the Howlers - Hard Times In the Land of Plenty
TTITLE10=Doyle Bramhall - Change It
TTITLE11=Juke Boy Bonner - Going Back To the Country
TTITLE12=Gatemouth Brown - My Time Is Expensive
TTITLE13=Joe "Guitar" Hughes - If You Want To See the Blues
TTITLE14=Ivory Joe Hunter - I Feel So Good
TTITLE15=Lightnin' Hopkins - Tom Moore Blues
EXTD=LABEL =Platinum Entertainment, Inc.\nID =5141612862\nUPC =7514
EXTD=16-1286-27\nCOPYRIGHT =1997
EXTT0=
EXTT1=
EXTT2=
EXTT3=
EXTT4=
EXTT5=
EXTT6=
EXTT7=
EXTT8=
EXTT9=
EXTT10=
EXTT11=
EXTT12=
EXTT13=
EXTT14=
EXTT15=
PLAYORDER=
